<svg xmlns='http://www.w3.org/2000/svg' viewBox='0 0 100 100'><g fill='#c19a4e' stroke='#9c7a35' stroke-width='1'><ellipse cx="50" cy="26" rx="7.5" ry="17" transform="rotate(0 50 50)"/><ellipse cx="50" cy="26" rx="7.5" ry="17" transform="rotate(45 50 50)"/><ellipse cx="50" cy="26" rx="7.5" ry="17" transform="rotate(90 50 50)"/><ellipse cx="50" cy="26" rx="7.5" ry="17" transform="rotate(135 50 50)"/><ellipse cx="50" cy="26" rx="7.5" ry="17" transform="rotate(180 50 50)"/><ellipse cx="50" cy="26" rx="7.5" ry="17" transform="rotate(225 50 50)"/><ellipse cx="50" cy="26" rx="7.5" ry="17" transform="rotate(270 50 50)"/><ellipse cx="50" cy="26" rx="7.5" ry="17" transform="rotate(315 50 50)"/></g><g fill='#e8d5a8' stroke='#9c7a35' stroke-width='.8'><ellipse cx="50" cy="34" rx="4.5" ry="11" transform="rotate(22.5 50 50)"/><ellipse cx="50" cy="34" rx="4.5" ry="11" transform="rotate(67.5 50 50)"/><ellipse cx="50" cy="34" rx="4.5" ry="11" transform="rotate(112.5 50 50)"/><ellipse cx="50" cy="34" rx="4.5" ry="11" transform="rotate(157.5 50 50)"/><ellipse cx="50" cy="34" rx="4.5" ry="11" transform="rotate(202.5 50 50)"/><ellipse cx="50" cy="34" rx="4.5" ry="11" transform="rotate(247.5 50 50)"/><ellipse cx="50" cy="34" rx="4.5" ry="11" transform="rotate(292.5 50 50)"/><ellipse cx="50" cy="34" rx="4.5" ry="11" transform="rotate(337.5 50 50)"/></g><circle cx='50' cy='50' r='9' fill='#9c7a35'/><circle cx='50' cy='50' r='4' fill='#f4ead2'/></svg>